<?xml version="1.0" standalone="no"?>
<!DOCTYPE svg PUBLIC "-//W3C//DTD SVG 20010904//EN"
 "http://www.w3.org/TR/2001/REC-SVG-20010904/DTD/svg10.dtd">
<svg version="1.0" xmlns="http://www.w3.org/2000/svg"
 width="200px" height="100px" viewBox="0 0 500.000000 500.000000"
 preserveAspectRatio="xMidYMid meet">
<metadata>
Created by potrace 1.16, written by Peter Selinger 2001-2019
</metadata>
<g transform="translate(0.000000,500.000000) scale(0.100000,-0.100000)"
fill="#5c76ef" stroke="none">
<path d="M410 2445 l0 -475 105 0 105 0 0 216 0 215 32 -3 32 -3 46 -185 c26
-102 50 -197 53 -212 l7 -28 104 0 103 0 -65 232 c-47 165 -62 233 -53 236 31
10 71 57 85 99 10 27 16 80 16 128 0 200 -92 254 -432 255 l-138 0 0 -475z
m349 318 c39 -32 50 -148 19 -206 -13 -25 -68 -47 -118 -47 l-40 0 0 135 0
135 59 0 c41 0 65 -5 80 -17z"/>
<path d="M1120 2445 l0 -475 210 0 210 0 0 70 0 70 -110 0 -110 0 0 145 0 145
80 0 80 0 0 70 0 70 -80 0 -80 0 0 120 0 120 110 0 110 0 0 70 0 70 -210 0
-210 0 0 -475z"/>
<path d="M1600 2913 c0 -9 158 -890 165 -920 5 -22 10 -23 110 -23 90 0 104 2
109 18 8 27 166 898 166 916 0 13 -14 16 -88 16 l-88 0 -44 -297 c-24 -164
-46 -309 -50 -323 l-7 -25 -6 30 c-6 28 -97 601 -97 610 0 3 -38 5 -85 5 -47
0 -85 -3 -85 -7z"/>
<path d="M2260 2445 l0 -475 210 0 210 0 0 70 0 70 -110 0 -110 0 0 145 0 145
85 0 85 0 0 70 0 70 -85 0 -85 0 0 120 0 120 110 0 110 0 0 70 0 70 -210 0
-210 0 0 -475z"/>
<path d="M2780 2445 l0 -475 90 0 90 0 2 246 3 246 96 -244 96 -243 67 -3 66
-3 0 476 0 475 -80 0 -80 0 0 -231 c0 -126 -3 -228 -7 -225 -5 2 -51 106 -103
230 l-95 226 -72 0 -73 0 0 -475z"/>
<path d="M3440 2542 c0 -422 4 -454 63 -512 45 -45 89 -62 183 -68 106 -6 181
15 232 66 64 64 65 74 69 505 l4 387 -100 0 -101 0 0 -362 c0 -224 -4 -378
-11 -401 -17 -64 -90 -75 -126 -20 -16 24 -18 64 -21 405 l-3 378 -95 0 -94 0
0 -378z"/>
<path d="M4083 2908 c3 -7 42 -106 88 -220 l82 -207 -51 -143 c-28 -79 -69
-194 -91 -255 l-40 -113 82 0 82 0 50 140 c27 77 52 140 56 140 3 0 32 -63 64
-140 l58 -140 93 0 94 0 -19 48 c-11 26 -51 125 -90 221 -39 96 -71 181 -71
189 0 9 36 121 80 249 44 129 80 236 80 239 0 2 -37 4 -83 4 l-83 0 -42 -130
c-24 -71 -45 -130 -46 -130 -2 0 -27 59 -56 130 l-53 130 -94 0 c-72 0 -94 -3
-90 -12z"/>
</g>
</svg>
